<svg width="22" height="22" viewBox="0 0 22 22" fill="none" xmlns="http://www.w3.org/2000/svg">
<g clip-path="url(#clip0_2004_441)">
<path fill-rule="evenodd" clip-rule="evenodd" d="M14.2382 6.76784C13.3695 6.18736 12.3481 5.87753 11.3033 5.87753V0.594727C13.3929 0.594727 15.4357 1.21439 17.1732 2.37535C18.9107 3.53631 20.2649 5.18644 21.0646 7.11703C21.8643 9.04763 22.0735 11.1721 21.6658 13.2216C21.2582 15.2711 20.2519 17.1537 18.7743 18.6313C17.2967 20.109 15.414 21.1152 13.3645 21.5229C11.315 21.9306 9.19057 21.7213 7.25997 20.9217C5.32938 20.122 3.67925 18.7678 2.5183 17.0303C1.35733 15.2927 0.737671 13.25 0.737671 11.1603H6.02047C6.02047 12.2052 6.33031 13.2265 6.91078 14.0953C7.49125 14.964 8.31632 15.6411 9.28165 16.041C10.2469 16.4409 11.3091 16.5455 12.3339 16.3416C13.3586 16.1378 14.2999 15.6346 15.0388 14.8958C15.7776 14.157 16.2807 13.2157 16.4845 12.1909C16.6884 11.1662 16.5838 10.104 16.1839 9.1387C15.7841 8.17338 15.107 7.34831 14.2382 6.76784Z" fill="white"/>
<path fill-rule="evenodd" clip-rule="evenodd" d="M6.02047 0.594729C6.02047 1.28848 5.88383 1.97543 5.61834 2.61637C5.35285 3.25731 4.96373 3.83968 4.47317 4.33023C3.98262 4.82079 3.40025 5.20991 2.75931 5.4754C2.11837 5.74088 1.43142 5.87753 0.737671 5.87753L0.737671 11.1603C2.12516 11.1603 3.49907 10.887 4.78095 10.3561C6.06283 9.8251 7.22759 9.04684 8.20865 8.06572C9.18978 7.08465 9.96804 5.9199 10.499 4.63801C11.03 3.35613 11.3033 1.98222 11.3033 0.594727L6.02047 0.594729Z" fill="white"/>
</g>
<defs>
<clipPath id="clip0_2004_441">
<rect width="21.1312" height="21.1312" fill="white" transform="translate(0.737671 0.594727)"/>
</clipPath>
</defs>
</svg>
