<svg width="26" height="29" viewBox="0 0 26 29" fill="none" xmlns="http://www.w3.org/2000/svg">
<path d="M20.9727 10.043H17.4688C16.9078 10.043 16.4531 9.5533 16.4531 8.94922C16.4531 8.34514 16.9078 7.85547 17.4688 7.85547H20.9727C21.5336 7.85547 21.9883 8.34514 21.9883 8.94922C21.9883 9.5533 21.5336 10.043 20.9727 10.043ZM21.9883 13.3789C21.9883 12.7748 21.5336 12.2852 20.9727 12.2852H17.4688C16.9078 12.2852 16.4531 12.7748 16.4531 13.3789C16.4531 13.983 16.9078 14.4727 17.4688 14.4727H20.9727C21.5336 14.4727 21.9883 13.983 21.9883 13.3789ZM19.957 20.0508C19.957 20.6549 20.4117 21.1445 20.9727 21.1445C21.5336 21.1445 21.9883 20.6549 21.9883 20.0508C21.9883 19.4467 21.5336 18.957 20.9727 18.957C20.4117 18.957 19.957 19.4467 19.957 20.0508ZM17.9258 20.0508C17.9258 19.4467 17.4711 18.957 16.9102 18.957H13.9141C13.3531 18.957 12.8984 19.4467 12.8984 20.0508C12.8984 20.6549 13.3531 21.1445 13.9141 21.1445H16.9102C17.4711 21.1445 17.9258 20.6549 17.9258 20.0508ZM10.8672 20.0508C10.8672 19.4467 10.4125 18.957 9.85156 18.957H5.07812C4.5172 18.957 4.0625 19.4467 4.0625 20.0508C4.0625 20.6549 4.5172 21.1445 5.07812 21.1445H9.85156C10.4125 21.1445 10.8672 20.6549 10.8672 20.0508ZM10.8672 15.6758V8.94922C10.8672 8.34514 10.4125 7.85547 9.85156 7.85547H5.07812C4.5172 7.85547 4.0625 8.34514 4.0625 8.94922V15.6758C4.0625 16.2799 4.5172 16.7695 5.07812 16.7695H9.85156C10.4125 16.7695 10.8672 16.2799 10.8672 15.6758ZM6.09375 10.043H8.83594V14.582H6.09375V10.043ZM12.8984 8.94922C12.8984 9.5533 13.3531 10.043 13.9141 10.043C14.475 10.043 14.9297 9.5533 14.9297 8.94922C14.9297 8.34514 14.475 7.85547 13.9141 7.85547C13.3531 7.85547 12.8984 8.34514 12.8984 8.94922ZM12.9492 13.3789C12.9492 13.983 13.4039 14.4727 13.9648 14.4727C14.5258 14.4727 14.9805 13.983 14.9805 13.3789C14.9805 12.7748 14.5258 12.2852 13.9648 12.2852C13.4039 12.2852 12.9492 12.7748 12.9492 13.3789ZM26 21.1445C26 20.5405 25.5453 20.0508 24.9844 20.0508C24.4234 20.0508 23.9688 20.5405 23.9688 21.1445C23.9688 22.3507 23.0575 23.332 21.9375 23.332H4.0625C2.94247 23.332 2.03125 22.3507 2.03125 21.1445V7.85547C2.03125 6.64928 2.94247 5.66797 4.0625 5.66797H21.9375C23.0575 5.66797 23.9688 6.64928 23.9688 7.85547V15.6758C23.9688 16.2799 24.4234 16.7695 24.9844 16.7695C25.5453 16.7695 26 16.2799 26 15.6758V7.85547C26 5.44309 24.1776 3.48047 21.9375 3.48047H4.0625C1.82244 3.48047 0 5.44309 0 7.85547V21.1445C0 23.5569 1.82244 25.5195 4.0625 25.5195H21.9375C24.1776 25.5195 26 23.5569 26 21.1445Z" fill="#B5BAC8"/>
</svg>
