<svg width="29" height="30" viewBox="0 0 29 30" fill="none" xmlns="http://www.w3.org/2000/svg">
<g clip-path="url(#clip0_2040_8)">
<path d="M14.3321 1.71948C16.6203 1.71948 18.4823 3.6368 18.4823 5.92504C18.4823 8.21328 16.6203 10.0753 14.3321 10.0753C12.0438 10.0753 10.1819 8.21328 10.1819 5.92504C10.1819 3.6368 12.0438 1.71948 14.3321 1.71948Z" fill="white"/>
<path d="M8.52187 16.7155C6.6908 16.7155 5.20169 15.2264 5.20169 13.3954C5.20169 11.5643 6.6908 10.0752 8.52187 10.0752C10.3529 10.0752 11.842 11.5643 11.842 13.3954C11.842 15.2264 10.3529 16.7155 8.52187 16.7155Z" fill="white"/>
<path d="M27.6681 26.676H26.8381C25.9211 26.676 25.178 25.9326 25.178 25.0159V15.0554C25.178 14.1384 25.9211 13.3953 26.8381 13.3953H27.6681C28.1266 13.3953 28.4982 13.7668 28.4982 14.2253V25.8459C28.4982 26.3044 28.1266 26.676 27.6681 26.676Z" fill="white"/>
<path d="M23.518 15.0554V25.0159C23.518 25.1832 23.5435 25.3436 23.5673 25.5042L18.724 27.8984C18.151 28.1846 17.5088 28.3361 16.8686 28.3361C16.6139 28.3361 9.37071 28.3361 9.37071 28.3361C8.7538 28.3361 8.15072 28.1651 7.62545 27.8409L0.829258 23.0362C0.0973492 22.485 -0.0517979 21.4424 0.497673 20.7105C0.996132 20.0461 1.96214 19.7581 2.82179 20.3792L7.93089 23.261C8.04999 23.3234 8.18206 23.3559 8.31673 23.3559C8.61589 23.3559 18.1748 23.3559 17.8183 23.3559C18.2772 23.3559 18.6484 22.9847 18.6484 22.5258C18.6484 22.0671 18.2772 21.6958 17.8183 21.6958H10.1819C9.26501 21.6958 8.52186 20.9524 8.52186 20.0357C8.52186 19.1187 9.26501 18.3756 10.1819 18.3756H14.081L18.0155 15.7525C18.6988 15.2962 19.4949 15.0554 20.3176 15.0554H23.518Z" fill="white"/>
</g>
<defs>
<clipPath id="clip0_2040_8">
<rect width="28.3321" height="28.3321" fill="white" transform="matrix(-1 0 0 1 28.4982 0.833984)"/>
</clipPath>
</defs>
</svg>
