<svg width="24" height="25" viewBox="0 0 24 25" fill="none" xmlns="http://www.w3.org/2000/svg">
<path d="M4.00001 11.499H2.00001C2.00001 6.369 5.87301 2.5 11.01 2.5V4.5C6.94801 4.5 4.00001 7.443 4.00001 11.499Z" fill="#B5BAC8"/>
<path d="M11 8.5C8.89696 8.5 7.99996 9.397 7.99996 11.5H5.99996C5.99996 8.275 7.77496 6.5 11 6.5V8.5ZM7.57796 13.943C7.97696 13.58 8.59296 13.599 8.96896 13.986L11.362 16.447C11.938 16.337 13.096 15.976 14.288 14.787C15.48 13.594 15.841 12.433 15.948 11.861L13.489 9.467C13.101 9.091 13.083 8.476 13.446 8.076L17.141 4.013C17.504 3.612 18.121 3.574 18.532 3.926L20.702 5.787C20.875 5.961 20.978 6.191 20.992 6.436C21.007 6.686 21.293 12.608 16.701 17.202C12.695 21.207 7.67696 21.5 6.29496 21.5C6.09296 21.5 5.96896 21.494 5.93596 21.492C5.69096 21.478 5.46096 21.375 5.28796 21.201L3.42796 19.03C3.07496 18.619 3.11496 18.003 3.51396 17.639L7.57796 13.943Z" fill="#B5BAC8"/>
</svg>
