<svg width="29" height="25" viewBox="0 0 29 25" fill="none" xmlns="http://www.w3.org/2000/svg">
<path fill-rule="evenodd" clip-rule="evenodd" d="M14.9033 0.778921C12.6153 0.702724 10.3036 1.32696 8.30785 2.65914C6.06632 4.15695 4.49983 6.36879 3.77829 8.84141C3.57903 8.81708 3.34043 8.82781 3.05711 8.90794C1.9993 9.20808 1.20371 10.0749 0.845985 10.8382C0.382011 11.8331 0.186333 13.1488 0.392743 14.5071C0.597721 15.8611 1.16973 16.9772 1.88519 17.6701C2.60279 18.3634 3.41305 18.5888 4.21793 18.4196C5.41633 18.1638 6.01051 17.9724 5.84274 16.856L5.03034 11.4439C5.19418 8.5148 6.71059 5.75743 9.24688 4.0618C12.6417 1.79415 17.0926 1.93939 20.3307 4.42525C22.5834 6.15236 23.8912 8.74017 24.0422 11.4568L23.4741 15.2426C22.207 18.7101 19.0658 21.1119 15.4309 21.4528H13.0105C12.386 21.4528 11.883 21.9557 11.883 22.5796V23.1742C11.883 23.7984 12.386 24.3014 13.0105 24.3014H16.0623C16.6866 24.3014 17.1874 23.7984 17.1874 23.1742V22.8633C19.9283 22.1943 22.3208 20.5098 23.8787 18.1606L24.8564 18.4199C25.652 18.6264 26.4719 18.3634 27.1891 17.6705C27.9046 16.9772 28.4762 15.8615 28.6816 14.5075C28.8887 13.1492 28.6873 11.8356 28.2287 10.8386C27.7683 9.84162 27.0825 9.20844 26.2909 8.98128C25.9592 8.88577 25.5994 8.85071 25.2907 8.84141C24.6382 6.6056 23.2949 4.57227 21.3589 3.0877C19.4554 1.6271 17.1913 0.854044 14.9033 0.778921Z" fill="#55A548"/>
<path fill-rule="evenodd" clip-rule="evenodd" d="M18.4752 10.5153C19.2819 10.5153 19.9358 11.1693 19.9376 11.9781C19.9358 12.7848 19.2819 13.4405 18.4752 13.4405C17.6664 13.4405 17.0107 12.7848 17.0107 11.9781C17.0107 11.1696 17.6667 10.5153 18.4752 10.5153ZM14.5366 10.5153C15.3451 10.5153 15.999 11.1693 15.999 11.9781C15.999 12.7848 15.3451 13.4405 14.5366 13.4405C13.7274 13.4405 13.0735 12.7848 13.0735 11.9781C13.0735 11.1696 13.7274 10.5153 14.5366 10.5153ZM10.5995 10.5153C11.4061 10.5153 12.0618 11.1693 12.0618 11.9781C12.0618 12.7848 11.4061 13.4405 10.5995 13.4405C9.79099 13.4405 9.1367 12.7848 9.1367 11.9781C9.1367 11.1696 9.79099 10.5153 10.5995 10.5153ZM14.5366 4.23291C10.2474 4.23291 6.79108 7.57553 6.79108 11.9781C6.79108 14.0926 7.5906 15.9614 8.89309 17.3326L8.4309 19.4045C8.27851 20.0864 8.75143 20.545 9.36422 20.2037L11.3875 19.0751C12.3491 19.4925 13.4126 19.7233 14.5366 19.7233C18.8272 19.7233 22.2814 16.3828 22.2814 11.9781C22.2814 7.57553 18.8272 4.23291 14.5366 4.23291Z" fill="#55A548"/>
</svg>
